:SAMPLES-PER-SECOND 30
:FULLY-SPECIFIED
:DEGREES
565
root  -4.12341 37.484 40.648 -28.4808 39.5068 -11.5808
RightUpLeg  5.95865 -12.8137 -4.0253
RightLeg  23.5736 -10.2219 -5.06298
RightFoot  -4.07582 -0.77968 11.8052
RightToes  -5.82094e-011 -1.98785e-016 -5.10186e-018
Spine  10.3706 0.15809 -11.5181
Spine1  9.60243 -4.1986 14.2429
HEad  39.1953 -21.6126 7.00542
LeftShoulder1  3.63525 -9.63608 -21.3041
LeftArm  8.23442 8.38749 -57.4322
LeftForeArm  87.2626 -76.2546 -34.391
LeftHand  0.140585 -0.730717 -2.57467
RightShoulder  4.1159 7.98595 29.896
RightArm  15.1997 -18.5215 34.8049
RightForeArm  16.9047 21.4044 3.90428
RightHand  -2.00594 9.60776 -15.7592
LeftUpLeg  -6.989 -2.76033 20.8759
LeftLeg  60.988 -3.00245 -5.26657
LeftFoot  9.53221 3.7229 -20.3406
LeftToes  -8.4584e-011 5.90861e-011 8.40072e-012
566
root  -3.99787 37.407 40.245 -27.9898 39.0015 -11.5766
RightUpLeg  5.05178 -12.8973 -4.33145
RightLeg  23.3164 -9.67201 -4.75251
RightFoot  -3.45703 -0.836652 11.7637
RightToes  -5.82094e-011 -1.98785e-016 -5.10186e-018
Spine  10.8509 -0.171137 -9.58833
Spine1  10.0273 -4.09889 13.6434
HEad  39.5028 -20.7382 6.84192
LeftShoulder1  3.61418 -9.5902 -21.2363
LeftArm  7.89629 6.92594 -56.8271
LeftForeArm  92.3185 -77.735 -39.4864
LeftHand  -0.00327653 0.1497 0.0520829
RightShoulder  4.24258 8.27635 30.0928
RightArm  16.1788 -17.4446 34.1854
RightForeArm  14.9128 20.9923 4.05541
RightHand  -2.4941 9.54016 -19.5769
LeftUpLeg  -7.83211 -3.17107 21.0327
LeftLeg  61.4994 -4.59043 -8.5152
LeftFoot  9.10337 3.68924 -20.58
LeftToes  -8.4584e-011 5.90861e-011 8.40072e-012
567
root  -3.88132 37.307 39.7956 -27.9173 38.3878 -11.618
RightUpLeg  4.31499 -13.1235 -4.75409
RightLeg  23.3732 -8.74656 -4.33568
RightFoot  -2.66108 -0.900165 11.5819
RightToes  -5.82094e-011 -1.98785e-016 -5.10186e-018
Spine  11.7682 -0.122459 -8.60177
Spine1  10.2636 -4.13764 13.7394
HEad  40.11 -19.6173 6.28082
LeftShoulder1  3.62697 -9.28574 -22.0433
LeftArm  7.49603 5.17409 -56.0118
LeftForeArm  95.3644 -78.283 -41.6524
LeftHand  -0.0570348 0.641093 1.31753
RightShoulder  4.25656 8.39841 29.8329
RightArm  14.6032 -16.9539 34.3852
RightForeArm  14.052 19.449 4.51211
RightHand  -2.65212 8.74149 -21.8631
LeftUpLeg  -7.89221 -3.70532 21.2266
LeftLeg  61.7315 -6.42388 -12.1706
LeftFoot  7.65691 3.43461 -20.6007
LeftToes  -8.4584e-011 5.90861e-011 8.40072e-012
568
root  -3.6984 37.2131 39.2962 -27.6992 38.2953 -11.6182
RightUpLeg  3.58425 -13.1962 -5.42421
RightLeg  23.2909 -8.32202 -4.12351
RightFoot  -1.78548 -1.01788 11.9879
RightToes  -5.82094e-011 -1.98785e-016 -5.10186e-018
Spine  11.833 -0.157399 -8.45584
Spine1  11.123 -4.49594 14.3338
HEad  40.6959 -18.6071 5.95072
LeftShoulder1  3.64367 -9.07565 -22.684
LeftArm  5.97556 4.4637 -56.2276
LeftForeArm  95.7747 -77.9635 -39.8652
LeftHand  -0.0694382 0.87175 1.68957
RightShoulder  4.09828 7.91407 29.9714
RightArm  11.2784 -16.9856 34.6882
RightForeArm  15.7069 17.6601 5.37181
RightHand  -2.67452 8.3012 -22.7121
LeftUpLeg  -7.54373 -4.76497 20.8121
LeftLeg  61.3266 -8.41234 -15.6643
LeftFoot  4.77526 2.78787 -19.7507
LeftToes  -8.4584e-011 5.90861e-011 8.40072e-012
569
root  -3.46242 37.1416 38.7226 -27.1737 38.7192 -11.5076
RightUpLeg  2.80585 -13.1287 -6.37361
RightLeg  22.7804 -8.43511 -4.08432
RightFoot  -0.619583 -1.2119 12.8143
RightToes  -5.82094e-011 -1.98785e-016 -5.10186e-018
Spine  11.8591 -0.285127 -9.01369
Spine1  11.4353 -5.06894 15.1081
HEad  41.2332 -17.9648 6.12372
LeftShoulder1  3.66477 -9.19225 -22.5778
LeftArm  3.50956 4.74821 -57.4231
LeftForeArm  92.3765 -76.8139 -35.5042
LeftHand  -0.0578088 1.19914 1.42116
RightShoulder  4.06104 7.65 30.4946
RightArm  9.01222 -18.2661 34.7465
RightForeArm  17.0841 16.4275 6.17397
RightHand  -2.7567 8.33548 -23.3342
LeftUpLeg  -7.29042 -6.59321 19.6686
LeftLeg  60.5338 -10.4553 -18.7151
LeftFoot  1.13011 2.02106 -18.3691
LeftToes  -8.4584e-011 5.90861e-011 8.40072e-012
570
root  -3.18785 37.0945 38.0658 -26.6589 38.6681 -11.1639
RightUpLeg  2.3065 -12.4312 -7.34719
RightLeg  21.6632 -8.61623 -3.96327
RightFoot  1.11451 -1.48771 13.6466
RightToes  -5.82094e-011 -1.98785e-016 -5.10186e-018
Spine  12.1309 -0.378488 -9.40648
Spine1  11.5483 -5.4404 15.2701
HEad  41.4816 -17.3859 6.01607
LeftShoulder1  3.55127 -8.88928 -22.3578
LeftArm  1.05141 5.18916 -58.6064
LeftForeArm  87.66 -75.2595 -31.0885
LeftHand  -0.00187133 1.35356 -0.154559
RightShoulder  4.14925 7.6413 31.3296
RightArm  8.12223 -19.8772 34.2943
RightForeArm  18.8094 15.4782 6.85363
RightHand  -2.53404 8.22302 -21.6672
LeftUpLeg  -6.28925 -8.12825 18.076
LeftLeg  59.1647 -12.0932 -20.3337
LeftFoot  -2.73712 1.0938 -14.1699
LeftToes  -8.4584e-011 5.90861e-011 8.40072e-012
571
root  -2.85584 37.0504 37.2734 -26.0541 38.0924 -10.5001
RightUpLeg  2.04025 -11.3007 -8.48504
RightLeg  19.7722 -8.91689 -3.74352
RightFoot  3.37014 -1.8325 14.2975
RightToes  -5.82094e-011 -1.98785e-016 -5.10186e-018
Spine  12.6776 -0.294587 -9.51385
Spine1  11.4523 -5.52027 15.0885
HEad  41.1095 -16.936 5.80927
LeftShoulder1  3.50713 -8.57047 -22.7729
LeftArm  -0.735617 5.60108 -58.957
LeftForeArm  84.9707 -73.8165 -27.8008
LeftHand  0.04609 1.1478 -1.4383
RightShoulder  4.05907 7.35639 31.4778
RightArm  5.02762 -21.1063 34.2067
RightForeArm  23.7063 13.6984 7.93246
RightHand  -2.08894 8.31347 -17.922
LeftUpLeg  -4.53214 -9.08999 15.8251
LeftLeg  56.9295 -13.2206 -20.3376
LeftFoot  -7.70412 0.348686 -9.52822
LeftToes  -8.4584e-011 5.90861e-011 8.40072e-012
572
root  -2.47875 37.0757 36.4326 -24.5608 36.9867 -8.95512
RightUpLeg  1.61901 -9.48198 -10.0078
RightLeg  16.9051 -9.27617 -3.39892
RightFoot  6.29174 -2.28091 14.9213
RightToes  -5.82094e-011 -1.98785e-016 -5.10186e-018
Spine  12.1855 0.120913 -10.9467
Spine1  12.0131 -5.65434 15.2333
HEad  40.8485 -16.2866 5.55204
LeftShoulder1  3.46832 -8.20488 -23.3788
LeftArm  -2.70764 6.02878 -58.8083
LeftForeArm  81.7066 -71.6366 -23.9518
LeftHand  0.079669 0.918399 -2.23063
RightShoulder  4.05466 7.30062 31.6327
RightArm  2.31058 -21.9474 33.657
RightForeArm  28.1556 12.1032 8.80938
RightHand  -1.69372 8.3952 -14.48
LeftUpLeg  -2.34241 -8.09385 12.9652
LeftLeg  53.1358 -12.9439 -17.4133
LeftFoot  -13.7692 -0.0641936 -6.72257
LeftToes  -8.4584e-011 5.90861e-011 8.40072e-012
573
root  -2.07021 37.1574 35.5402 -22.0972 35.374 -6.69575
RightUpLeg  0.599742 -7.92908 -11.764
RightLeg  13.1864 -9.17037 -3.25747
RightFoot  10.1289 -2.78431 14.978
RightToes  -5.82094e-011 -1.98785e-016 -5.10186e-018
Spine  10.6558 0.705646 -12.9318
Spine1  12.9449 -5.55592 15.1376
HEad  40.9516 -16.1551 5.40708
LeftShoulder1  3.44612 -7.93001 -23.9248
LeftArm  -4.25903 6.00664 -58.2518
LeftForeArm  77.9347 -68.2957 -19.6476
LeftHand  0.0730189 1.43095 -2.40392
RightShoulder  4.04825 7.14768 32.1163
RightArm  0.481841 -22.0772 32.6932
RightForeArm  31.2084 10.8297 9.41183
RightHand  -1.08315 7.62671 -10.0042
LeftUpLeg  -0.926997 -5.56703 9.73954
LeftLeg  48.499 -11.6842 -13.389
LeftFoot  -16.7459 -0.0676607 -3.49985
LeftToes  -8.4584e-011 5.90861e-011 8.40072e-012
574
root  -1.75357 37.3635 34.6662 -19.0682 32.8807 -3.78836
RightUpLeg  -0.80222 -8.77792 -13.568
RightLeg  9.00252 -8.10147 -3.26771
RightFoot  14.7203 -3.48461 15.4046
RightToes  -5.82094e-011 -1.98785e-016 -5.10186e-018
Spine  9.02911 1.49516 -15.8848
Spine1  13.272 -5.20442 14.8339
HEad  41.6938 -15.2133 5.25425
LeftShoulder1  3.27901 -7.26129 -24.2655
LeftArm  -6.58536 6.59989 -57.4646
LeftForeArm  78.0155 -64.5415 -15.8692
LeftHand  0.0851606 1.58223 -2.91875
RightShoulder  4.07854 7.05614 32.7348
RightArm  -3.93952 -21.4211 31.8619
RightForeArm  37.4745 8.33746 10.1919
RightHand  -0.725721 7.60354 -6.84216
LeftUpLeg  0.094427 -1.35768 6.99264
LeftLeg  43.4011 -11.3462 -10.8755
LeftFoot  -17.6675 0.0663656 -0.673462
LeftToes  -8.4584e-011 5.90861e-011 8.40072e-012
575
root  -1.47265 37.571 33.7253 -17.4084 31.8016 -2.50206
RightUpLeg  -1.80791 -10.5427 -14.5232
RightLeg  8.54518 -11.8009 -3.69102
RightFoot  15.3957 -3.81353 16.4454
RightToes  -5.82094e-011 -1.98785e-016 -5.10186e-018
Spine  8.46879 1.49219 -18.1815
Spine1  13.2824 -5.87242 15.9904
HEad  42.072 -13.9831 4.51868
LeftShoulder1  3.17832 -6.66264 -25.0966
LeftArm  -8.31961 8.00854 -55.1436
LeftForeArm  80.2951 -61.9441 -13.7917
LeftHand  0.105149 2.0645 -4.18217
RightShoulder  4.04542 7.02827 32.5214
RightArm  -7.33062 -20.9441 32.0641
RightForeArm  39.9312 6.78049 10.3325
RightHand  -0.680552 7.32139 -6.55972
LeftUpLeg  0.246309 0.491087 4.8759
LeftLeg  39.3485 -11.294 -9.41134
LeftFoot  -17.1916 0.0844434 -0.272959
LeftToes  -8.4584e-011 5.90861e-011 8.40072e-012
576
root  -1.20129 37.9062 32.7262 -17.2225 31.3492 -2.35033
RightUpLeg  -2.30363 -11.1974 -14.4255
RightLeg  14.0642 -14.5555 -4.39809
RightFoot  9.62069 -3.03533 16.6198
RightToes  -5.82094e-011 -1.98785e-016 -5.10186e-018
Spine  8.84005 1.15658 -18.1714
Spine1  13.4562 -6.38277 15.9401
HEad  42.165 -13.1969 4.075
LeftShoulder1  3.23516 -6.55082 -26.0538
LeftArm  -10.5168 10.043 -52.5789
LeftForeArm  83.469 -59.7471 -12.3016
LeftHand  0.160144 2.04406 -6.02109
RightShoulder  3.93166 6.80379 32.2571
RightArm  -9.57307 -20.9366 32.8119
RightForeArm  40.0964 6.38421 10.1591
RightHand  -0.787315 7.18879 -7.59635
LeftUpLeg  0.493524 0.545255 3.1736
LeftLeg  36.0124 -10.3291 -7.62011
LeftFoot  -15.1583 0.131342 1.02163
LeftToes  -8.4584e-011 5.90861e-011 8.40072e-012
577
root  -0.982311 38.2764 31.7736 -16.8656 30.1047 -2.1005
RightUpLeg  -3.23609 -12.8599 -13.1981
RightLeg  22.4408 -14.9947 -6.92384
RightFoot  7.1263 -2.26066 14.1445
RightToes  -5.82094e-011 -1.98785e-016 -5.10186e-018
Spine  8.68892 1.18523 -17.3699
Spine1  13.6906 -6.03247 14.8363
HEad  42.4862 -12.7084 3.85859
LeftShoulder1  3.01545 -5.87312 -26.0348
LeftArm  -13.0996 12.1251 -51.6432
LeftForeArm  85.2164 -57.1889 -10.8355
LeftHand  0.212675 1.6695 -7.07697
RightShoulder  3.86322 6.58946 32.3898
RightArm  -8.41477 -21.2753 32.9688
RightForeArm  37.2091 7.44097 10.0921
RightHand  -0.906015 7.26502 -8.64074
LeftUpLeg  0.636388 1.31208 1.88901
LeftLeg  32.7452 -9.60509 -6.2417
LeftFoot  -12.3791 0.0710158 -0.175517
LeftToes  -8.4584e-011 5.90861e-011 8.40072e-012
578
root  -0.820252 38.6153 30.8411 -16.0357 28.4867 -1.96878
RightUpLeg  -4.28811 -13.81 -11.2161
RightLeg  31.3676 -15.9951 -10.4823
RightFoot  5.17547 -1.73927 12.1987
RightToes  -5.82094e-011 -1.98785e-016 -5.10186e-018
Spine  8.12568 1.32721 -16.427
Spine1  13.4718 -5.44669 13.7593
HEad  42.3896 -12.5771 3.7416
LeftShoulder1  2.69606 -4.94458 -25.7628
LeftArm  -15.7904 15.7456 -51.1594
LeftForeArm  84.4464 -56.9919 -10.7896
LeftHand  0.198357 2.2991 -8.07707
RightShoulder  3.88469 6.68421 32.2432
RightArm  -5.37496 -21.999 33.1334
RightForeArm  33.7635 9.29994 9.77849
RightHand  -0.899381 7.47592 -8.44728
LeftUpLeg  -0.0985092 3.1301 1.29454
LeftLeg  30.1056 -9.73317 -5.70745
LeftFoot  -9.08061 0.0477726 0.175704
LeftToes  -8.4584e-011 5.90861e-011 8.40072e-012
579
root  -0.687711 38.8898 29.8868 -15.3534 26.9363 -1.84971
RightUpLeg  -4.27722 -14.4992 -9.17744
RightLeg  38.6382 -14.8708 -12.6294
RightFoot  3.76603 -1.53181 11.7247
RightToes  -5.82094e-011 -1.98785e-016 -5.10186e-018
Spine  7.59705 1.42689 -15.5227
Spine1  13.5423 -4.9378 12.6166
HEad  41.4898 -12.4586 3.94487
LeftShoulder1  2.31627 -3.92363 -25.0154
LeftArm  -18.353 20.2665 -50.7055
LeftForeArm  81.9898 -58.6403 -11.7321
LeftHand  0.182352 2.43848 -7.90492
RightShoulder  3.84137 6.66294 31.8949
RightArm  -2.61605 -21.9419 33.5829
RightForeArm  31.6463 10.7157 9.30321
RightHand  -0.857815 7.75427 -7.91472
LeftUpLeg  -0.859115 4.85331 0.697172
LeftLeg  27.677 -9.9685 -5.29435
LeftFoot  -5.65432 -0.0126356 0.983568
LeftToes  -8.4584e-011 5.90861e-011 8.40072e-012
